<?xml version="1.0" encoding="UTF-8"?>
<svg id="svg2069" xmlns="http://www.w3.org/2000/svg" viewBox="0 0 455 455">
  <defs>
    <style>
      .cls-1, .cls-2, .cls-3, .cls-4 {
        fill: #fff;
      }

      .cls-2 {
        font-family: ElectricShocker, 'Electric Shocker';
        font-size: 64.97px;
      }

      .cls-2, .cls-3, .cls-5, .cls-4 {
        isolation: isolate;
      }

      .cls-3 {
        font-size: 16px;
      }

      .cls-3, .cls-4 {
        font-family: FuturaPT-Book, 'Futura PT';
      }

      .cls-4 {
        font-size: 52.93px;
      }
    </style>
  </defs>
  <ellipse id="path494" class="cls-1" cx="100.53" cy="222.49" rx="35.25" ry="35.45"/>
  <path id="path1786" class="cls-1" d="m102.12,190.69h-2.9v-35.39h2.9v35.39"/>
  <path id="path1788" class="cls-1" d="m102.12,289.75h-2.9v-39.17h2.9v39.17"/>
  <path id="path1810" class="cls-1" d="m298.14,271.89h-8.46v-.97h8.46v.97"/>
  <g id="text2478" class="cls-5">
    <text class="cls-2" transform="translate(141.5 207.45) scale(1.15 1)"><tspan x="0" y="0">Duality</tspan></text>
  </g>
  <g id="text570" class="cls-5">
    <text class="cls-4" transform="translate(139.05 257.56)"><tspan x="0" y="0">Social</tspan></text>
  </g>
  <g id="text773" class="cls-5">
    <text class="cls-3" transform="translate(288 265.5)"><tspan x="0" y="0">Experiment</tspan></text>
  </g>
  <g id="g997">
    <path id="path993" d="m104.98,217.12h-25c-1.24,0-2.43.5-3.31,1.38-.88.88-1.37,2.07-1.38,3.31v13.56c-.02,2.06.56,4.08,1.67,5.81l.16.25c4.19,6.14,11.28,7.95,15.14,8.48.15.02.29.02.44,0,3.86-.53,10.95-2.34,15.14-8.47l.16-.25h0c1.11-1.74,1.69-3.76,1.67-5.83v-13.56c0-1.24-.5-2.43-1.38-3.31s-2.07-1.37-3.31-1.38h0Zm-20.31,10.94v1.56c0,.56-.3,1.07-.78,1.35s-1.08.28-1.56,0-.78-.79-.78-1.35v-1.56c0-1.67.89-3.22,2.34-4.06,1.45-.84,3.24-.84,4.69,0,1.45.84,2.34,2.38,2.34,4.06v1.56c0,.56-.3,1.07-.78,1.35s-1.08.28-1.56,0-.78-.79-.78-1.35v-1.56c0-.56-.3-1.07-.78-1.35s-1.08-.28-1.56,0-.78.79-.78,1.35Zm13.75,9.92c-1.42,1.84-3.61,2.94-5.94,2.97-2.33-.03-4.51-1.13-5.94-2.97-.33-.45-.41-1.04-.19-1.55s.7-.87,1.25-.94c.55-.07,1.1.17,1.44.61.83,1.06,2.09,1.69,3.44,1.72,1.35-.03,2.61-.66,3.44-1.72.33-.45.88-.68,1.44-.61.55.07,1.03.42,1.25.94s.15,1.1-.19,1.55h0Zm5-8.36c0,.56-.3,1.07-.78,1.35s-1.08.28-1.56,0-.78-.79-.78-1.35v-1.56c0-.56-.3-1.07-.78-1.35s-1.08-.28-1.56,0-.78.79-.78,1.35v1.56c0,.56-.3,1.07-.78,1.35s-1.08.28-1.56,0-.78-.79-.78-1.35v-1.56c0-1.67.89-3.22,2.34-4.06,1.45-.84,3.24-.84,4.69,0,1.45.84,2.34,2.38,2.34,4.06v1.56Z"/>
    <path id="path995" d="m123.6,224.01c1.12-1.73,1.71-3.76,1.69-5.83v-13.56c0-1.24-.5-2.43-1.38-3.31-.88-.88-2.07-1.37-3.31-1.38h-25c-1.24,0-2.43.5-3.31,1.38s-1.37,2.07-1.38,3.31v9.38h14.06c2.34,0,4.56,1.05,6.05,2.86,1.82.38,3.45,1.39,4.59,2.86.24.34.34.75.28,1.16-.06.41-.29.78-.62,1.02-.27.2-.59.3-.92.3-.5,0-.97-.24-1.27-.64-.1-.13-.21-.26-.33-.37.02.2.03.41.03.63v9.91c4.33-1.23,8.11-3.89,10.72-7.55m-16.97-13.3c0,.56-.3,1.07-.78,1.35s-1.08.28-1.56,0-.78-.79-.78-1.35v-1.56c0-.56-.3-1.07-.78-1.35s-1.08-.28-1.56,0-.78.79-.78,1.35v1.56c0,.56-.3,1.07-.78,1.35s-1.08.28-1.56,0-.78-.79-.78-1.35v-1.56c0-1.67.89-3.22,2.34-4.06,1.45-.84,3.24-.84,4.69,0,1.45.84,2.34,2.38,2.34,4.06v1.56Zm12.5,0c0,.56-.3,1.07-.78,1.35s-1.08.28-1.56,0-.78-.79-.78-1.35v-1.56c0-.56-.3-1.07-.78-1.35-.48-.28-1.08-.28-1.56,0s-.78.79-.78,1.35v1.56c0,.56-.3,1.07-.78,1.35s-1.08.28-1.56,0-.78-.79-.78-1.35v-1.56c0-1.67.89-3.22,2.34-4.06,1.45-.84,3.24-.84,4.69,0,1.45.84,2.34,2.38,2.34,4.06v1.56Z"/>
  </g>
</svg>