<?xml version="1.0" encoding="UTF-8" standalone="no"?>
<!-- Created with Inkscape (http://www.inkscape.org/) -->

<svg
   width="70.492958"
   height="134.44533"
   viewBox="0 0 18.651261 35.571994"
   version="1.1"
   id="svg2069"
   inkscape:version="1.2.2 (b0a8486, 2022-12-01)"
   sodipodi:docname="duality.svg"
   xml:space="preserve"
   inkscape:export-filename="duality-1000.svg"
   inkscape:export-xdpi="210.98901"
   inkscape:export-ydpi="210.98901"
   xmlns:inkscape="http://www.inkscape.org/namespaces/inkscape"
   xmlns:sodipodi="http://sodipodi.sourceforge.net/DTD/sodipodi-0.dtd"
   xmlns="http://www.w3.org/2000/svg"
   xmlns:svg="http://www.w3.org/2000/svg"><sodipodi:namedview
     id="namedview2071"
     pagecolor="#ffffff"
     bordercolor="#000000"
     borderopacity="0.25"
     inkscape:showpageshadow="2"
     inkscape:pageopacity="0.78039216"
     inkscape:pagecheckerboard="true"
     inkscape:deskcolor="#d1d1d1"
     inkscape:document-units="px"
     showgrid="false"
     showguides="true"
     inkscape:zoom="2"
     inkscape:cx="266.25"
     inkscape:cy="241.25"
     inkscape:window-width="1280"
     inkscape:window-height="747"
     inkscape:window-x="278"
     inkscape:window-y="98"
     inkscape:window-maximized="0"
     inkscape:current-layer="layer1"><sodipodi:guide
       position="33.063597,-19.479264"
       orientation="0,-1"
       id="guide2466"
       inkscape:locked="false" /><sodipodi:guide
       position="20.028911,-6.1266586"
       orientation="1,0"
       id="guide2468"
       inkscape:locked="false" /><sodipodi:guide
       position="26.705213,-40.779853"
       orientation="0,-1"
       id="guide2470"
       inkscape:locked="false" /><sodipodi:guide
       position="65.385385,-35.269253"
       orientation="1,0"
       id="guide2472"
       inkscape:locked="false" /><sodipodi:guide
       position="71.955715,-34.739388"
       orientation="0,-1"
       id="guide2474"
       inkscape:locked="false" /><sodipodi:guide
       position="27.341051,-14.074637"
       orientation="0,-1"
       id="guide496"
       inkscape:locked="false" /><sodipodi:guide
       position="27.552997,-32.725899"
       orientation="0,-1"
       id="guide498"
       inkscape:locked="false" /><sodipodi:guide
       position="-8.1758309e-07,-14.816448"
       orientation="1,0"
       id="guide500"
       inkscape:locked="false" /><sodipodi:guide
       position="18.757234,-25.837651"
       orientation="1,0"
       id="guide502"
       inkscape:locked="false" /><sodipodi:guide
       position="47.369962,-21.06886"
       orientation="0,-1"
       id="guide572"
       inkscape:locked="false" /><sodipodi:guide
       position="47.28472,-22.819864"
       orientation="0,-1"
       id="guide715"
       inkscape:locked="false" /><sodipodi:guide
       position="9.3170118,-26.391737"
       orientation="1,0"
       id="guide717"
       inkscape:locked="false" /><sodipodi:guide
       position="19.635761,-0.19798548"
       orientation="0,-1"
       id="guide259"
       inkscape:locked="false" /><sodipodi:guide
       position="18.709719,10.517639"
       orientation="1,0"
       id="guide261"
       inkscape:locked="false" /></sodipodi:namedview><defs
     id="defs2066" /><g
     inkscape:label="Layer 1"
     inkscape:groupmode="layer"
     id="layer1"
     transform="translate(-17.273612,0.051232)"><g
       id="g257"
       transform="translate(1.1255514e-7,-41.142707)"><ellipse
         style="fill:#ffffff;stroke-width:0.384969"
         id="path494"
         cx="26.599243"
         cy="58.868046"
         rx="9.3256311"
         ry="9.3786173"
         inkscape:label="CIRCLE" /><path
         d="m 27.018709,50.453847 h -0.767644 v -9.362372 h 0.767644 v 9.362372"
         style="fill:#ffffff;fill-opacity:1;fill-rule:nonzero;stroke:none;stroke-width:0.0352778"
         id="path1786"
         inkscape:label="top line" /><path
         d="m 27.018709,76.663467 h -0.767644 v -10.36461 h 0.767644 v 10.36461"
         style="fill:#ffffff;fill-opacity:1;fill-rule:nonzero;stroke:none;stroke-width:0.0352778"
         id="path1788"
         inkscape:label="bottom line" /><g
         id="g997"
         transform="matrix(0.0236229,0,0,0.02362357,18.267106,52.898276)"><path
           d="m 402.5,192.5 h -280 c -13.91,0.0391 -27.242,5.5859 -37.078,15.422 C 75.586,217.7581 70.039,231.09 70,245 v 151.9 c -0.27344,23.066 6.2383,45.707 18.727,65.102 l 1.75,2.8008 c 46.898,68.773 126.35,89.074 169.57,95.023 1.625,0.23438 3.2734,0.23438 4.8984,0 43.227,-5.9492 122.68,-26.25 169.57,-94.852 l 1.75,-2.8008 v 0.004 c 12.469,-19.473 18.977,-42.156 18.727,-65.277 V 245 c -0.0391,-13.91 -5.5859,-27.242 -15.422,-37.078 -9.8361,-9.836 -23.168,-15.383 -37.078,-15.422 z M 175,315 v 17.5 c 0,6.2539 -3.3359,12.031 -8.75,15.156 -5.4141,3.125 -12.086,3.125 -17.5,0 C 143.336,344.531 140,338.7537 140,332.5 V 315 c 0,-18.758 10.008,-36.09 26.25,-45.465 16.242,-9.3789 36.258,-9.3789 52.5,0 C 234.992,278.91 245,296.242 245,315 v 17.5 c 0,6.2539 -3.3359,12.031 -8.75,15.156 -5.4141,3.125 -12.086,3.125 -17.5,0 C 213.336,344.531 210,338.7537 210,332.5 V 315 c 0,-6.2539 -3.3359,-12.031 -8.75,-15.156 -5.4141,-3.125 -12.086,-3.125 -17.5,0 -5.414,3.125 -8.75,8.9023 -8.75,15.156 z m 154,111.12 c -15.93,20.652 -40.422,32.898 -66.5,33.25 -26.078,-0.35938 -50.566,-12.602 -66.5,-33.25 -3.75,-5 -4.5508,-11.625 -2.0938,-17.375 2.457,-5.75 7.793,-9.75 14,-10.5 6.207,-0.74609 12.344,1.875 16.094,6.875 9.332,11.824 23.441,18.879 38.5,19.25 15.07,-0.32812 29.199,-7.3906 38.5,-19.25 3.75,-5 9.8867,-7.6211 16.094,-6.875 6.207,0.75 11.543,4.75 14,10.5 2.457,5.75 1.6562,12.375 -2.0938,17.375 z m 56,-93.625 c 0,6.2539 -3.3359,12.031 -8.75,15.156 -5.4141,3.125 -12.086,3.125 -17.5,0 -5.414,-3.125 -8.75,-8.9023 -8.75,-15.156 v -17.5 c 0,-6.2539 -3.3359,-12.031 -8.75,-15.156 -5.4141,-3.125 -12.086,-3.125 -17.5,0 -5.414,3.125 -8.75,8.9023 -8.75,15.156 v 17.5 c 0,6.2539 -3.3359,12.031 -8.75,15.156 -5.4141,3.125 -12.086,3.125 -17.5,0 -5.414,-3.125 -8.75,-8.9023 -8.75,-15.156 v -17.5 c 0,-18.758 10.008,-36.09 26.25,-45.465 16.242,-9.3789 36.258,-9.3789 52.5,0 16.242,9.375 26.25,26.707 26.25,45.465 z"
           id="path993" /><path
           d="m 611.1,269.68 c 12.598,-19.422 19.172,-42.129 18.898,-65.277 V 52.503 C 629.95894,38.593 624.4121,25.261 614.576,15.425 604.7399,5.589 591.408,0.042 577.498,0.003 h -280 c -13.91,0.039062 -27.242,5.5859 -37.078,15.422 -9.836,9.8361 -15.383,23.168 -15.422,37.078 v 105 h 157.5 c 26.238,-0.043 51.109,11.719 67.727,32.023 20.41,4.2188 38.652,15.574 51.449,32.027 2.7227,3.7617 3.8477,8.4531 3.125,13.043 -0.71875,4.5898 -3.2266,8.707 -6.9766,11.457 -2.9961,2.1875 -6.6133,3.3516 -10.324,3.3242 -5.6016,0.0156 -10.871,-2.6523 -14.176,-7.1758 -1.1328,-1.4766 -2.3633,-2.8789 -3.6758,-4.1992 0.17578,2.2734 0.35156,4.5508 0.35156,7 v 110.95 c 48.445,-13.738 90.781,-43.547 120.05,-84.523 m -190.05,-148.93 c 0,6.2539 -3.3359,12.031 -8.75,15.156 -5.4141,3.125 -12.086,3.125 -17.5,0 -5.414,-3.125 -8.75,-8.9023 -8.75,-15.156 v -17.5 c 0,-6.2539 -3.3359,-12.031 -8.75,-15.156 -5.4141,-3.125 -12.086,-3.125 -17.5,0 -5.414,3.125 -8.75,8.9023 -8.75,15.156 v 17.5 c 0,6.2539 -3.3359,12.031 -8.75,15.156 -5.4141,3.125 -12.086,3.125 -17.5,0 -5.414,-3.125 -8.75,-8.9023 -8.75,-15.156 v -17.5 c 0,-18.758 10.008,-36.09 26.25,-45.465 16.242,-9.3789 36.258,-9.3789 52.5,0 16.242,9.375 26.25,26.707 26.25,45.465 z m 140,0 c 0,6.2539 -3.3359,12.031 -8.75,15.156 -5.4141,3.125 -12.086,3.125 -17.5,0 -5.414,-3.125 -8.75,-8.9023 -8.75,-15.156 v -17.5 c 0,-6.2539 -3.3359,-12.031 -8.75,-15.156 -5.4141,-3.125 -12.086,-3.125 -17.5,0 -5.414,3.125 -8.75,8.9023 -8.75,15.156 v 17.5 c 0,6.2539 -3.3359,12.031 -8.75,15.156 -5.4141,3.125 -12.086,3.125 -17.5,0 -5.414,-3.125 -8.75,-8.9023 -8.75,-15.156 v -17.5 c 0,-18.758 10.008,-36.09 26.25,-45.465 16.242,-9.3789 36.258,-9.3789 52.5,0 16.242,9.375 26.25,26.707 26.25,45.465 z"
           id="path995" /></g></g></g></svg>
